<?xml version="1.0" encoding="UTF-8"?>
<svg version="1.1" xmlns="http://www.w3.org/2000/svg" width="229" height="124">
<path d="M0 0 C0.83749283 -0.00315216 1.67498566 -0.00630432 2.53785706 -0.009552 C3.44309616 -0.00752777 4.34833527 -0.00550354 5.28100586 -0.00341797 C6.20803818 -0.00437469 7.1350705 -0.00533142 8.0901947 -0.00631714 C10.05134143 -0.00699823 12.01249041 -0.00514886 13.97363281 -0.00097656 C16.98694888 0.00437871 20.00011629 -0.00092705 23.01342773 -0.00732422 C24.91512077 -0.00666354 26.81681372 -0.0053826 28.71850586 -0.00341797 C29.6257692 -0.0054422 30.53303253 -0.00746643 31.4677887 -0.009552 C37.81839583 0.01444076 37.81839583 0.01444076 38.93334961 1.12939453 C39.02916783 2.66025292 39.05523069 4.19553209 39.05360413 5.72938538 C39.05566612 7.22075264 39.05566612 7.22075264 39.05776978 8.74224854 C39.05237686 10.39193634 39.05237686 10.39193634 39.046875 12.07495117 C39.04702103 13.22601852 39.04716705 14.37708588 39.0473175 15.56303406 C39.04661779 19.38855844 39.03882263 23.21403484 39.03100586 27.03955078 C39.02914189 29.68371046 39.02771789 32.32787049 39.02671814 34.97203064 C39.0236051 41.2335487 39.01539209 47.49504939 39.00536865 53.75655979 C38.99420666 60.8834099 38.98869685 68.01026083 38.98367321 75.13711751 C38.97320945 89.80121883 38.95561054 104.46530644 38.93334961 119.12939453 C35.93182106 120.63015881 32.84514951 120.27161045 29.55444336 120.26220703 C28.46354149 120.26364212 28.46354149 120.26364212 27.3506012 120.2651062 C25.81316033 120.26578688 24.27571659 120.26394038 22.73828125 120.25976562 C20.37680661 120.25440805 18.0155215 120.2597183 15.65405273 120.26611328 C14.16251585 120.26545263 12.67097909 120.26417174 11.17944336 120.26220703 C10.46904404 120.26423126 9.75864471 120.26625549 9.02671814 120.26834106 C4.04830675 120.24435168 4.04830675 120.24435168 2.93334961 119.12939453 C2.80845263 116.72688921 2.74734171 114.35166669 2.72802734 111.94750977 C2.71812775 111.19633881 2.70822815 110.44516785 2.69802856 109.67123413 C2.66632415 107.17685142 2.64162102 104.68244962 2.61694336 102.18798828 C2.59638154 100.4630533 2.57538528 98.73812345 2.55397034 97.01319885 C2.4986699 92.46432639 2.44929592 87.91540786 2.40112305 83.36645508 C2.35096607 78.7281482 2.29524978 74.08990855 2.23999023 69.45166016 C2.13231122 60.34429565 2.03088804 51.23687288 1.93334961 42.12939453 C-0.27230007 44.00948706 -2.47650062 45.89123596 -4.67993164 47.77392578 C-5.29582153 48.2986145 -5.91171143 48.82330322 -6.54626465 49.3638916 C-10.52795815 52.76871808 -14.41636194 56.25054887 -18.25415039 59.81689453 C-21.90030772 63.20516002 -25.62285605 66.44839792 -29.50415039 69.56689453 C-34.91933014 73.9256447 -39.98330601 78.60170389 -45.06274414 83.34033203 C-48.03906017 86.11525718 -51.07538386 88.81169493 -54.16040039 91.46533203 C-55.59674116 92.71918688 -57.00958328 94.0000359 -58.41040039 95.29345703 C-59.20446289 96.02306641 -59.99852539 96.75267578 -60.81665039 97.50439453 C-61.53336914 98.17212891 -62.25008789 98.83986328 -62.98852539 99.52783203 C-65.09019288 101.14753818 -66.44714476 101.82188735 -69.06665039 102.12939453 C-72.14759414 99.04845078 -70.52900889 87.49061691 -70.58154297 83.12182617 C-70.61309093 81.09741788 -70.66074884 79.07319179 -70.72509766 77.04956055 C-71.25227836 60.24447134 -71.25227836 60.24447134 -68.34692383 55.06152344 C-66.34899835 53.05309218 -64.47827356 51.59592609 -62.06665039 50.12939453 C-61.11790039 49.30439453 -60.16915039 48.47939453 -59.19165039 47.62939453 C-57.06665039 46.12939453 -57.06665039 46.12939453 -55.06665039 46.12939453 C-55.06665039 45.46939453 -55.06665039 44.80939453 -55.06665039 44.12939453 C-54.40665039 44.12939453 -53.74665039 44.12939453 -53.06665039 44.12939453 C-53.06665039 43.46939453 -53.06665039 42.80939453 -53.06665039 42.12939453 C-51.33273088 40.52305438 -49.52855939 38.99186583 -47.69165039 37.50439453 C-46.69391602 36.68712891 -45.69618164 35.86986328 -44.66821289 35.02783203 C-42.06665039 33.12939453 -42.06665039 33.12939453 -40.06665039 33.12939453 C-40.06665039 32.46939453 -40.06665039 31.80939453 -40.06665039 31.12939453 C-39.40665039 31.12939453 -38.74665039 31.12939453 -38.06665039 31.12939453 C-38.06665039 30.46939453 -38.06665039 29.80939453 -38.06665039 29.12939453 C-36.63305664 27.68408203 -36.63305664 27.68408203 -34.62915039 26.00439453 C-30.65043716 22.63560882 -26.78959429 19.15899634 -22.94946289 15.63330078 C-21.06665039 14.12939453 -21.06665039 14.12939453 -19.06665039 14.12939453 C-19.06665039 13.46939453 -19.06665039 12.80939453 -19.06665039 12.12939453 C-17.51349653 10.75690772 -15.89779356 9.45460752 -14.25415039 8.19189453 C-11.35123203 5.9508248 -8.64872795 3.72698006 -6.06665039 1.12939453 C-3.788544 -0.00965866 -2.52968669 0.00272464 0 0 Z " fill="#37B048" transform="translate(188.066650390625,0.87060546875)"/>
<path d="M0 0 C1.73327666 -0.02149425 3.46644732 -0.05549475 5.19921875 -0.10253906 C21.43886055 -0.53943129 21.43886055 -0.53943129 26.3762207 3.12768555 C27.46821637 4.18804732 28.53176448 5.27899588 29.5559082 6.4050293 C30.55235352 7.22745117 31.54879883 8.04987305 32.57543945 8.8972168 C33.49711914 9.68354492 34.41879883 10.46987305 35.3684082 11.2800293 C40.20493191 15.40387609 45.2384252 19.04576424 50.5715332 22.51831055 C52.5559082 24.4050293 52.5559082 24.4050293 53.11450195 26.90893555 C52.36503607 30.25794743 51.13243592 31.0350077 48.3684082 33.0300293 C44.08124923 36.24539853 39.9410782 39.55103087 35.8684082 43.0300293 C35.08590698 43.69446045 35.08590698 43.69446045 34.28759766 44.37231445 C33.27330107 45.23398113 32.26828063 46.10672506 31.27432251 46.99177551 C29.5559082 48.4050293 29.5559082 48.4050293 27.74501038 49.46302795 C25.48809165 50.92588426 24.10552949 52.18958273 22.5559082 54.4050293 C21.5164285 59.30570402 21.62415986 64.18848016 21.6887207 69.17456055 C21.68186948 70.62092404 21.67180043 72.06727555 21.65866089 73.51359558 C21.6321484 77.30624302 21.64630024 81.09763454 21.66998291 84.89025879 C21.6916837 89.51289071 21.66749926 94.13546572 21.64793205 98.75807476 C21.63327194 102.35067835 21.62623509 105.94274387 21.64212036 109.53535461 C21.64476898 110.81726181 21.6474176 112.09916901 21.65014648 113.41992188 C21.65850021 115.12152214 21.65850021 115.12152214 21.66702271 116.85749817 C21.5559082 119.4050293 21.5559082 119.4050293 20.5559082 120.4050293 C17.90134627 120.50598494 15.27335645 120.54473928 12.6184082 120.5378418 C11.42550171 120.53927689 11.42550171 120.53927689 10.20849609 120.54074097 C8.5238436 120.54142273 6.83918849 120.53956872 5.15454102 120.53540039 C2.56691624 120.53005205 -0.02053496 120.53534549 -2.6081543 120.54174805 C-4.24096718 120.54108726 -5.87377996 120.5398061 -7.5065918 120.5378418 C-8.28574951 120.53986603 -9.06490723 120.54189026 -9.86767578 120.54397583 C-15.32914075 120.51998034 -15.32914075 120.51998034 -16.4440918 119.4050293 C-16.54207568 117.8764944 -16.5704101 116.34343965 -16.57107544 114.81176758 C-16.57389526 113.8189679 -16.57671509 112.82616821 -16.57962036 111.80328369 C-16.57759613 110.70506287 -16.5755719 109.60684204 -16.57348633 108.4753418 C-16.57523865 107.32588074 -16.57699097 106.17641968 -16.57879639 104.99212646 C-16.5832177 101.1714123 -16.58027592 97.35074398 -16.5769043 93.5300293 C-16.57757726 90.88826488 -16.57854721 88.24650053 -16.57980347 85.60473633 C-16.581625 80.05964659 -16.57921927 74.51457015 -16.57446289 68.96948242 C-16.5690203 62.55008186 -16.57078296 56.13071304 -16.5762893 49.71131325 C-16.58136606 43.54701947 -16.58083891 37.38273982 -16.57790756 31.21844482 C-16.57723801 28.5900675 -16.57806768 25.96168937 -16.58038712 23.33331299 C-16.58291199 19.66709206 -16.57907537 16.00093308 -16.57348633 12.3347168 C-16.57551056 11.23649597 -16.57753479 10.13827515 -16.57962036 9.0067749 C-16.57680054 8.01397522 -16.57398071 7.02117554 -16.57107544 5.99829102 C-16.57069841 5.13033905 -16.57032139 4.26238708 -16.56993294 3.36813354 C-16.22758536 -1.97244097 -4.26941691 0.03977343 0 0 Z " fill="#D1D0D0" transform="translate(90.444091796875,0.594970703125)"/>
<path d="M0 0 C1.1359259 0.00303635 1.1359259 0.00303635 2.2947998 0.00613403 C3.06787476 0.00517731 3.84094971 0.00422058 4.63745117 0.00323486 C6.27502524 0.00255313 7.91260199 0.00440697 9.5501709 0.00857544 C12.06536901 0.01392382 14.58038854 0.00863027 17.09558105 0.00222778 C18.68282103 0.00288857 20.2700609 0.00416973 21.8572998 0.00613403 C22.99322571 0.00309769 22.99322571 0.00309769 24.15209961 0 C29.46109849 0.02399522 29.46109849 0.02399522 30.5760498 1.13894653 C30.67403369 2.66748143 30.70236811 4.20053618 30.70303345 5.73220825 C30.70726318 7.22140778 30.70726318 7.22140778 30.71157837 8.74069214 C30.70854202 10.38802338 30.70854202 10.38802338 30.70544434 12.06863403 C30.70807281 13.79282562 30.70807281 13.79282562 30.71075439 15.55184937 C30.71517571 19.37256353 30.71223393 23.19323185 30.7088623 27.01394653 C30.70953526 29.65571095 30.71050522 32.2974753 30.71176147 34.9392395 C30.71358301 40.48432924 30.71117728 46.02940568 30.7064209 51.57449341 C30.7009783 57.99389397 30.70274097 64.41326279 30.7082473 70.83266258 C30.71332406 76.99695636 30.71279692 83.16123601 30.70986557 89.32553101 C30.70919602 91.95390833 30.71002569 94.58228646 30.71234512 97.21066284 C30.71487 100.87688377 30.71103337 104.54304275 30.70544434 108.20925903 C30.70746857 109.30747986 30.7094928 110.40570068 30.71157837 111.53720093 C30.70875854 112.53000061 30.70593872 113.52280029 30.70303345 114.54568481 C30.70246791 115.84761276 30.70246791 115.84761276 30.70189095 117.17584229 C30.5760498 119.13894653 30.5760498 119.13894653 29.5760498 120.13894653 C25.10695168 120.35858091 20.63228166 120.3247352 16.1583252 120.32424927 C13.91520797 120.32642073 11.67259455 120.34452834 9.42956543 120.36355591 C7.99532232 120.36649286 6.56107687 120.36847563 5.12683105 120.36941528 C3.17257202 120.37557861 3.17257202 120.37557861 1.17883301 120.38186646 C-3.91360319 120.03850574 -7.96262434 118.97755832 -11.7911377 115.52957153 C-12.64904907 114.77244873 -12.64904907 114.77244873 -13.52429199 114.00003052 C-14.1099292 113.4683728 -14.69556641 112.93671509 -15.2989502 112.38894653 C-16.53037463 111.29984021 -17.76343679 110.21258268 -18.99816895 109.12722778 C-19.58646484 108.60854126 -20.17476074 108.08985474 -20.78088379 107.55545044 C-23.36905637 105.32416109 -26.09092588 103.30280641 -28.87316895 101.32254028 C-30.4239502 100.13894653 -30.4239502 100.13894653 -31.94348145 98.61160278 C-33.56041238 96.90820634 -33.56041238 96.90820634 -36.4239502 95.13894653 C-35.98284128 90.41159059 -34.2981621 88.6629411 -30.7364502 85.63894653 C-29.83539551 84.8667981 -28.93434082 84.09464966 -28.00598145 83.29910278 C-27.15391113 82.58625122 -26.30184082 81.87339966 -25.4239502 81.13894653 C-24.47068848 80.30170044 -24.47068848 80.30170044 -23.49816895 79.44754028 C-19.69941316 76.13894653 -19.69941316 76.13894653 -17.4239502 76.13894653 C-17.4239502 75.47894653 -17.4239502 74.81894653 -17.4239502 74.13894653 C-16.7639502 74.13894653 -16.1039502 74.13894653 -15.4239502 74.13894653 C-15.4239502 73.47894653 -15.4239502 72.81894653 -15.4239502 72.13894653 C-14.7639502 72.13894653 -14.1039502 72.13894653 -13.4239502 72.13894653 C-13.4239502 71.47894653 -13.4239502 70.81894653 -13.4239502 70.13894653 C-12.44982178 69.57079224 -11.47569336 69.00263794 -10.4720459 68.41726685 C-8.01693082 66.42936104 -7.46911482 65.37075329 -6.85568237 62.22232056 C-6.64851751 58.3710028 -6.61870587 54.54042797 -6.65441895 50.68582153 C-6.6457029 49.2604482 -6.63421284 47.83508936 -6.62007141 46.40975952 C-6.589724 42.66822547 -6.59410759 38.9275488 -6.60668945 35.1859436 C-6.61613706 30.62759514 -6.58771271 26.06935808 -6.56162739 21.51109695 C-6.54159693 17.96787235 -6.52837776 14.42508899 -6.53581238 10.88180542 C-6.53523331 9.61669128 -6.53465424 8.35157715 -6.53405762 7.04812622 C-6.53661057 5.92847473 -6.53916351 4.80882324 -6.54179382 3.65524292 C-6.32580296 -0.95677592 -4.06345903 0.01836572 0 0 Z " fill="#37B349" transform="translate(38.4239501953125,0.861053466796875)"/>
<path d="M0 0 C0.75728394 0.00202423 1.51456787 0.00404846 2.2947998 0.00613403 C3.06787476 0.00517731 3.84094971 0.00422058 4.63745117 0.00323486 C6.27502524 0.00255313 7.91260199 0.00440697 9.5501709 0.00857544 C12.06536901 0.01392382 14.58038854 0.00863027 17.09558105 0.00222778 C18.68282103 0.00288857 20.2700609 0.00416973 21.8572998 0.00613403 C22.99322571 0.00309769 22.99322571 0.00309769 24.15209961 0 C29.46109849 0.02399522 29.46109849 0.02399522 30.5760498 1.13894653 C30.67186802 2.66980493 30.69793089 4.20508409 30.69630432 5.73893738 C30.69767899 6.73318222 30.69905365 7.72742706 30.70046997 8.75180054 C30.69507706 10.40148834 30.69507706 10.40148834 30.6895752 12.08450317 C30.68972122 13.23557053 30.68986725 14.38663788 30.6900177 15.57258606 C30.68931798 19.39811045 30.68152283 23.22358685 30.67370605 27.04910278 C30.67184208 29.69326247 30.67041808 32.33742249 30.66941833 34.98158264 C30.6663053 41.24310071 30.65809228 47.50460139 30.64806885 53.76611179 C30.63690685 60.89296191 30.63139704 68.01981283 30.62637341 75.14666951 C30.61590965 89.81077083 30.59831074 104.47485844 30.5760498 119.13894653 C30.2460498 119.13894653 29.9160498 119.13894653 29.5760498 119.13894653 C29.56574234 118.43389481 29.55543488 117.72884308 29.54481506 117.00242615 C29.44554108 110.25420169 29.34288132 103.50603567 29.23671055 96.75791645 C29.18228024 93.29128165 29.129018 89.82463831 29.07873535 86.35794067 C28.84446928 70.26806273 28.49132597 54.20625463 27.5760498 38.13894653 C25.5997323 38.50140578 25.5997323 38.50140578 23.5760498 39.13894653 C22.89118255 40.46302322 22.22734778 41.79803894 21.5760498 43.13894653 C19.94344266 44.5137736 18.27379918 45.8454232 16.5760498 47.13894653 C15.8747998 47.88144653 15.1735498 48.62394653 14.4510498 49.38894653 C12.5760498 51.13894653 12.5760498 51.13894653 9.5760498 51.13894653 C8.9160498 52.45894653 8.2560498 53.77894653 7.5760498 55.13894653 C6.9160498 55.13894653 6.2560498 55.13894653 5.5760498 55.13894653 C4.9160498 56.45894653 4.2560498 57.77894653 3.5760498 59.13894653 C2.9160498 59.13894653 2.2560498 59.13894653 1.5760498 59.13894653 C1.5760498 59.79894653 1.5760498 60.45894653 1.5760498 61.13894653 C0.5860498 61.79894653 -0.4039502 62.45894653 -1.4239502 63.13894653 C-2.48641547 65.10647482 -3.49532827 67.10482232 -4.4239502 69.13894653 C-6.75728353 69.13894653 -9.09061686 69.13894653 -11.4239502 69.13894653 C-10.77488205 68.60915695 -10.1258139 68.07936737 -9.45707703 67.53352356 C-6.84332869 64.45510188 -6.9147844 62.82701145 -6.8939209 58.82571411 C-6.87742996 57.5479158 -6.86093903 56.27011749 -6.84394836 54.95359802 C-6.84560257 53.56355759 -6.84753688 52.17351747 -6.84973145 50.78347778 C-6.83728579 49.35667708 -6.82295141 47.92989171 -6.80680847 46.50312805 C-6.76880356 42.75358915 -6.75359711 39.00431442 -6.74401855 35.25460815 C-6.72426125 29.24217328 -6.66755419 23.22993954 -6.61525536 17.21771812 C-6.59986535 15.1142794 -6.59271091 13.01094063 -6.58711243 10.90745544 C-6.58007797 9.63911362 -6.57304352 8.37077179 -6.5657959 7.06399536 C-6.56057671 5.37999382 -6.56057671 5.37999382 -6.55525208 3.66197205 C-6.31514787 -0.95173971 -4.07470021 0.01841652 0 0 Z " fill="#328C3D" transform="translate(38.4239501953125,0.861053466796875)"/>
<path d="M0 0 C0.83749283 -0.00315216 1.67498566 -0.00630432 2.53785706 -0.009552 C3.44309616 -0.00752777 4.34833527 -0.00550354 5.28100586 -0.00341797 C6.20803818 -0.00437469 7.1350705 -0.00533142 8.0901947 -0.00631714 C10.05134143 -0.00699823 12.01249041 -0.00514886 13.97363281 -0.00097656 C16.98694888 0.00437871 20.00011629 -0.00092705 23.01342773 -0.00732422 C24.91512077 -0.00666354 26.81681372 -0.0053826 28.71850586 -0.00341797 C29.6257692 -0.0054422 30.53303253 -0.00746643 31.4677887 -0.009552 C37.81839583 0.01444076 37.81839583 0.01444076 38.93334961 1.12939453 C39.02916783 2.66025292 39.05523069 4.19553209 39.05360413 5.72938538 C39.05497879 6.72363022 39.05635345 7.71787506 39.05776978 8.74224854 C39.05237686 10.39193634 39.05237686 10.39193634 39.046875 12.07495117 C39.04702103 13.22601852 39.04716705 14.37708588 39.0473175 15.56303406 C39.04661779 19.38855844 39.03882263 23.21403484 39.03100586 27.03955078 C39.02914189 29.68371046 39.02771789 32.32787049 39.02671814 34.97203064 C39.0236051 41.2335487 39.01539209 47.49504939 39.00536865 53.75655979 C38.99420666 60.8834099 38.98869685 68.01026083 38.98367321 75.13711751 C38.97320945 89.80121883 38.95561054 104.46530644 38.93334961 119.12939453 C38.60334961 119.12939453 38.27334961 119.12939453 37.93334961 119.12939453 C37.60334961 95.69939453 37.27334961 72.26939453 36.93334961 48.12939453 C36.60334961 48.12939453 36.27334961 48.12939453 35.93334961 48.12939453 C35.82625428 36.40840605 35.94194312 24.8138282 36.93334961 13.12939453 C35.82926758 14.03431641 35.82926758 14.03431641 34.70288086 14.95751953 C33.72706055 15.75673828 32.75124023 16.55595703 31.74584961 17.37939453 C30.30145508 18.56275391 30.30145508 18.56275391 28.82788086 19.77001953 C27.87268555 20.54861328 26.91749023 21.32720703 25.93334961 22.12939453 C24.63977539 23.23541016 24.63977539 23.23541016 23.32006836 24.36376953 C21.07185854 26.02692966 19.66216672 26.72512533 16.93334961 27.12939453 C19.76892034 23.48366073 22.62133173 20.31513456 26.22631836 17.42626953 C26.81324463 16.95423096 27.4001709 16.48219238 28.00488281 15.99584961 C29.19534136 15.05260419 30.39827594 14.12486859 31.61376953 13.21411133 C33.54881377 11.74040724 33.54881377 11.74040724 35.93334961 9.12939453 C35.93334961 7.14939453 35.93334961 5.16939453 35.93334961 3.12939453 C21.74334961 3.12939453 7.55334961 3.12939453 -7.06665039 3.12939453 C-7.72665039 4.77939453 -8.38665039 6.42939453 -9.06665039 8.12939453 C-10.56665039 9.94189453 -10.56665039 9.94189453 -12.06665039 11.12939453 C-12.72665039 11.12939453 -13.38665039 11.12939453 -14.06665039 11.12939453 C-14.27290039 11.72751953 -14.47915039 12.32564453 -14.69165039 12.94189453 C-16.60214248 15.98131376 -18.78069264 16.82870292 -22.06665039 18.12939453 C-22.72665039 17.79939453 -23.38665039 17.46939453 -24.06665039 17.12939453 C-22.69165039 15.62939453 -22.69165039 15.62939453 -21.06665039 14.12939453 C-20.40665039 14.12939453 -19.74665039 14.12939453 -19.06665039 14.12939453 C-19.06665039 13.46939453 -19.06665039 12.80939453 -19.06665039 12.12939453 C-17.51349653 10.75690772 -15.89779356 9.45460752 -14.25415039 8.19189453 C-11.35123203 5.9508248 -8.64872795 3.72698006 -6.06665039 1.12939453 C-3.788544 -0.00965866 -2.52968669 0.00272464 0 0 Z " fill="#1F5422" transform="translate(188.066650390625,0.87060546875)"/>
<path d="M0 0 C1.25917208 5.45641234 1.5682175 11.863565 -1 17 C-1.09128293 18.94044277 -1.11752248 20.8840756 -1.11352539 22.82666016 C-1.11344986 24.04777496 -1.11337433 25.26888977 -1.11329651 26.52700806 C-1.10818952 27.86435995 -1.10297352 29.20171143 -1.09765625 30.5390625 C-1.0957914 31.90383859 -1.09436781 33.26861534 -1.09336853 34.63339233 C-1.08954863 38.22715093 -1.07972283 41.82086917 -1.06866455 45.41461182 C-1.05843911 49.08108982 -1.05386848 52.74757435 -1.04882812 56.4140625 C-1.0381001 63.60939341 -1.02102999 70.80469105 -1 78 C8.26162933 82.63081466 19.65133439 79.64314946 30 80 C30 53.27 30 26.54 30 -1 C30.33 -1 30.66 -1 31 -1 C31.02312328 9.67419698 31.04091501 20.34838806 31.05181217 31.02260494 C31.05704103 35.97853922 31.06413874 40.93445642 31.07543945 45.89038086 C31.08626822 50.66898836 31.09227681 55.44757938 31.09487724 60.2261982 C31.09673151 62.05353619 31.10035216 63.88087324 31.10573006 65.70820427 C31.11294036 68.25853329 31.11399095 70.80879337 31.11352539 73.35913086 C31.11712067 74.12229614 31.12071594 74.88546143 31.12442017 75.67175293 C31.11405216 80.88594784 31.11405216 80.88594784 30 82 C27.56339554 82.10082764 25.15575299 82.13972603 22.71875 82.1328125 C21.99006714 82.13376923 21.26138428 82.13472595 20.51062012 82.13571167 C18.9672029 82.13639335 17.42378283 82.13453988 15.88037109 82.13037109 C13.510026 82.12502262 11.13987041 82.13031642 8.76953125 82.13671875 C7.27343708 82.13605797 5.77734303 82.1347768 4.28125 82.1328125 C3.56771362 82.13483673 2.85417725 82.13686096 2.11901855 82.13894653 C-2.88504809 82.11495191 -2.88504809 82.11495191 -4 81 C-4.12489698 78.59749468 -4.1860079 76.22227215 -4.20532227 73.81811523 C-4.21522186 73.06694427 -4.22512146 72.31577332 -4.23532104 71.5418396 C-4.26702546 69.04745688 -4.29172859 66.55305509 -4.31640625 64.05859375 C-4.33696807 62.33365877 -4.35796433 60.60872892 -4.37937927 58.88380432 C-4.43467971 54.33493186 -4.48405369 49.78601333 -4.53222656 45.23706055 C-4.58238354 40.59875367 -4.63809983 35.96051402 -4.69335938 31.32226562 C-4.80103839 22.21490112 -4.90246157 13.10747835 -5 4 C-7.64 5.98 -10.28 7.96 -13 10 C-13 8.35 -13 6.7 -13 5 C-12.34 5 -11.68 5 -11 5 C-11 4.34 -11 3.68 -11 3 C-9.73581754 2.30034557 -8.46334598 1.61565237 -7.1875 0.9375 C-6.47980469 0.55464844 -5.77210938 0.17179687 -5.04296875 -0.22265625 C-3 -1 -3 -1 0 0 Z " fill="#438F4C" transform="translate(195,39)"/>
<path d="M0 0 C1.32 0.66 2.64 1.32 4 2 C3.29199249 2.4745311 2.58398499 2.94906219 1.85452271 3.43797302 C-2.32655561 6.62426141 -5.48094796 9.14809392 -6.93267822 14.32766724 C-7.2495927 18.26885989 -7.28365054 22.15039412 -7.1953125 26.09765625 C-7.19910642 27.54212706 -7.2073083 28.98659235 -7.21969604 30.43101501 C-7.24037611 34.20495127 -7.20178882 37.97596377 -7.15020752 41.74951172 C-7.1081237 45.61103304 -7.12297148 49.47230807 -7.1328125 53.33398438 C-7.14378614 60.89020837 -7.09205739 68.44425353 -7 76 C-7.33 76 -7.66 76 -8 76 C-8.02283554 75.23214172 -8.04567108 74.46428345 -8.06919861 73.67315674 C-8.2852648 66.43391886 -8.505526 59.19482652 -8.73049068 51.95586014 C-8.84599706 48.23431081 -8.95988545 44.51272667 -9.07006836 40.79101562 C-9.17647672 37.19881653 -9.2871454 33.60677158 -9.40075874 30.0147934 C-9.44333959 28.64493178 -9.48438978 27.27502169 -9.5238781 25.90506744 C-9.57948317 23.98509228 -9.64105408 22.0652927 -9.70288086 20.14550781 C-9.73619003 19.05296692 -9.76949921 17.96042603 -9.80381775 16.83477783 C-9.97163597 14.40985218 -10.30860895 12.32063366 -11 10 C-10.34 9.67 -9.68 9.34 -9 9 C-8.34 9.33 -7.68 9.66 -7 10 C-7 9.34 -7 8.68 -7 8 C-7.66 8 -8.32 8 -9 8 C-8.67 6.68 -8.34 5.36 -8 4 C-6.68 4 -5.36 4 -4 4 C-3.01 3.67 -2.02 3.34 -1 3 C-0.67 2.01 -0.34 1.02 0 0 Z M-13 14 C-12.34 14.33 -11.68 14.66 -11 15 C-11.99 15 -12.98 15 -14 15 C-13.67 14.67 -13.34 14.34 -13 14 Z " fill="#959190" transform="translate(119,44)"/>
<path d="M0 0 C0.33 0 0.66 0 1 0 C1.33 12.87 1.66 25.74 2 39 C6.86132495 38.50847518 6.86132495 38.50847518 9 36 C9 35.01 9 34.02 9 33 C12.465 32.505 12.465 32.505 16 32 C12.06515575 37.03779302 7.72615472 41.97209729 2 45 C1.01 44.67 0.02 44.34 -1 44 C-1.02464513 37.8944529 -1.04283371 31.78893449 -1.05493164 25.68334961 C-1.05997288 23.60456844 -1.06680574 21.52579084 -1.07543945 19.44702148 C-1.08751422 16.46597414 -1.09323024 13.48497351 -1.09765625 10.50390625 C-1.10539818 9.10078941 -1.10539818 9.10078941 -1.11329651 7.66932678 C-1.11337204 6.80850998 -1.11344757 5.94769318 -1.11352539 5.06079102 C-1.115746 4.29912125 -1.11796661 3.53745148 -1.12025452 2.75270081 C-1 1 -1 1 0 0 Z " fill="#1E4F20" transform="translate(119,58)"/>
<path d="M0 0 C0.66 0.33 1.32 0.66 2 1 C1.21625 1.598125 0.4325 2.19625 -0.375 2.8125 C-3.14574323 4.91085249 -3.14574323 4.91085249 -5 8 C-8.125 8.1875 -8.125 8.1875 -11 8 C-11.12375 8.556875 -11.2475 9.11375 -11.375 9.6875 C-12.07760904 12.28715346 -12.76657238 14.598062 -14 17 C-15.9375 17.625 -15.9375 17.625 -18 18 C-19.01620899 18.98352391 -20.01282642 19.98733602 -21 21 C-22.54742298 22.24809418 -24.11089196 23.47648223 -25.6875 24.6875 C-26.49574219 25.31011719 -27.30398437 25.93273437 -28.13671875 26.57421875 C-29.05904297 27.27998047 -29.05904297 27.27998047 -30 28 C-30.33 27.01 -30.66 26.02 -31 25 C-30.34 25 -29.68 25 -29 25 C-28.896875 24.360625 -28.79375 23.72125 -28.6875 23.0625 C-28.460625 22.381875 -28.23375 21.70125 -28 21 C-27.01 20.67 -26.02 20.34 -25 20 C-25 19.34 -25 18.68 -25 18 C-24.34 18 -23.68 18 -23 18 C-23 17.34 -23 16.68 -23 16 C-21.26608049 14.39365985 -19.461909 12.8624713 -17.625 11.375 C-16.62726563 10.55773438 -15.62953125 9.74046875 -14.6015625 8.8984375 C-12 7 -12 7 -10 7 C-10 6.34 -10 5.68 -10 5 C-9.34 5 -8.68 5 -8 5 C-8 4.34 -8 3.68 -8 3 C-5.35261084 1.5393715 -4.10551666 1 -1 1 C-0.67 0.67 -0.34 0.34 0 0 Z " fill="#3D9E4A" transform="translate(158,27)"/>
<path d="M0 0 C0.33 0 0.66 0 1 0 C1 8.58 1 17.16 1 26 C-3.44769108 26.04606354 -7.89454508 26.08584222 -12.34228516 26.10986328 C-13.85338149 26.11988339 -15.36445862 26.13350321 -16.87548828 26.15087891 C-19.05506142 26.17530392 -21.23437684 26.18652307 -23.4140625 26.1953125 C-25.37786865 26.21102295 -25.37786865 26.21102295 -27.38134766 26.22705078 C-34.28701204 25.79375785 -38.04811823 23.48027399 -43 19 C-41.3125 18.25 -41.3125 18.25 -39 18 C-36.25 19.8125 -36.25 19.8125 -34 22 C-34 22.66 -34 23.32 -34 24 C-22.78 24 -11.56 24 0 24 C0 16.08 0 8.16 0 0 Z " fill="#2C712F" transform="translate(67,95)"/>
<path d="M0 0 C0 26.07 0 52.14 0 79 C-0.33 79 -0.66 79 -1 79 C-1.33 53.59 -1.66 28.18 -2 2 C-4.64 3.98 -7.28 5.96 -10 8 C-10 6.35 -10 4.7 -10 3 C-9.34 3 -8.68 3 -8 3 C-8 2.34 -8 1.68 -8 1 C-5 -1 -5 -1 0 0 Z " fill="#407444" transform="translate(192,41)"/>
<path d="M0 0 C0.02939331 4.43748574 0.04692963 8.87494593 0.0625 13.3125 C0.07087891 14.55580078 0.07925781 15.79910156 0.08789062 17.08007812 C0.1072306 24.44861031 -0.16096191 31.67757176 -1 39 C-1.33 39 -1.66 39 -2 39 C-2.10709533 27.27901152 -1.99140649 15.68443367 -1 4 C-1.73605469 4.60328125 -2.47210938 5.2065625 -3.23046875 5.828125 C-4.20628906 6.62734375 -5.18210938 7.4265625 -6.1875 8.25 C-7.63189453 9.43335938 -7.63189453 9.43335938 -9.10546875 10.640625 C-10.53826172 11.80851562 -10.53826172 11.80851562 -12 13 C-12.86238281 13.73734375 -13.72476563 14.4746875 -14.61328125 15.234375 C-16.86149107 16.89753513 -18.27118289 17.5957308 -21 18 C-17.19127324 13.10306559 -12.95940507 9.06889285 -8.25 5.0625 C-7.67096924 4.56580811 -7.09193848 4.06911621 -6.49536133 3.55737305 C-2.25050714 0 -2.25050714 0 0 0 Z " fill="#39843F" transform="translate(226,10)"/>
<path d="M0 0 C0.33 0 0.66 0 1 0 C1.60007585 9.66550744 2.10107821 19.31366809 2.125 29 C2.12951172 29.75845215 2.13402344 30.5169043 2.13867188 31.29833984 C2.12999271 34.46695666 2.00936899 36.97189302 1 40 C2.98 39.505 2.98 39.505 5 39 C4.32902328 43.19360449 2.1441606 46.40334352 0 50 C-2.33333333 50 -4.66666667 50 -7 50 C-4.94766315 47.7522025 -3.99332739 46.9977758 -1 46 C-0.67 30.82 -0.34 15.64 0 0 Z " fill="#3A8445" transform="translate(34,20)"/>
<path d="M0 0 C0.66 0 1.32 0 2 0 C1.67 1.32 1.34 2.64 1 4 C0.34 4 -0.32 4 -1 4 C-1 4.66 -1 5.32 -1 6 C-2.8125 8.125 -2.8125 8.125 -5 10 C-5.99 10 -6.98 10 -8 10 C-8 10.66 -8 11.32 -8 12 C-8.99 12 -9.98 12 -11 12 C-11.4021875 13.36125 -11.4021875 13.36125 -11.8125 14.75 C-12.89576294 17.71471963 -13.98359457 19.6169754 -16 22 C-16.99 21.67 -17.98 21.34 -19 21 C-18.55889108 16.27264406 -16.87421191 14.52399456 -13.3125 11.5 C-12.41144531 10.72785156 -11.51039062 9.95570312 -10.58203125 9.16015625 C-9.72996094 8.44730469 -8.87789062 7.73445313 -8 7 C-7.36449219 6.44183594 -6.72898437 5.88367188 -6.07421875 5.30859375 C-2.27546296 2 -2.27546296 2 0 2 C0 1.34 0 0.68 0 0 Z " fill="#35733C" transform="translate(21,75)"/>
<path d="M0 0 C4.09341499 -0.02469575 8.18680121 -0.04285793 12.28027344 -0.05493164 C13.67318477 -0.0599643 15.0660908 -0.06679098 16.45898438 -0.07543945 C18.45961246 -0.08755152 20.46027888 -0.09270412 22.4609375 -0.09765625 C23.66540527 -0.10289307 24.86987305 -0.10812988 26.11083984 -0.11352539 C29 0 29 0 31 1 C31 3.97 31 6.94 31 10 C30.01 10.495 30.01 10.495 29 11 C29 8.69 29 6.38 29 4 C25.94152152 3.45627049 23.11227195 3 20 3 C20.33 2.34 20.66 1.68 21 1 C19.69675781 1.10828125 19.69675781 1.10828125 18.3671875 1.21875 C17.21476562 1.3115625 16.06234375 1.404375 14.875 1.5 C13.16957031 1.63921875 13.16957031 1.63921875 11.4296875 1.78125 C8 2 8 2 4.6875 1.90625 C1.84990204 1.68895842 1.84990204 1.68895842 0.125 4 C-0.24625 4.66 -0.6175 5.32 -1 6 C-0.67 4.02 -0.34 2.04 0 0 Z " fill="#40AD4B" transform="translate(36,3)"/>
<path d="M0 0 C0.99 0.33 1.98 0.66 3 1 C-0.81621245 4.85917169 -4.71732182 8.6120961 -8.6875 12.3125 C-9.26822266 12.86228516 -9.84894531 13.41207031 -10.44726562 13.97851562 C-14.76848797 18 -14.76848797 18 -17 18 C-17 17.01 -17 16.02 -17 15 C-16.34 14.67 -15.68 14.34 -15 14 C-14.7525 13.175 -14.505 12.35 -14.25 11.5 C-13.63125 10.2625 -13.63125 10.2625 -13 9 C-11 8.66666667 -9 8.33333333 -7 8 C-5.54708727 5.53744315 -5.54708727 5.53744315 -5 3 C-3.68 3 -2.36 3 -1 3 C-0.67 2.01 -0.34 1.02 0 0 Z " fill="#3B8B44" transform="translate(179,48)"/>
<path d="M0 0 C3.69881557 0.63772682 3.69881557 0.63772682 5.26025391 2.51586914 C9.07462967 5.76981108 15.60449595 4.46477419 20.375 4.4375 C21.60734375 4.45748047 22.8396875 4.47746094 24.109375 4.49804688 C25.29789063 4.49740234 26.48640625 4.49675781 27.7109375 4.49609375 C29.33974854 4.49887329 29.33974854 4.49887329 31.00146484 4.50170898 C34.64319841 3.89238131 36.33533472 2.49021153 39 0 C39 1.98 39 3.96 39 6 C34.24956897 6.14870119 29.50050144 6.25737512 24.74829102 6.32958984 C23.13314204 6.35970087 21.51815577 6.40060063 19.90356445 6.45263672 C17.57722837 6.52571534 15.25305852 6.5595088 12.92578125 6.5859375 C12.20787918 6.61690521 11.48997711 6.64787292 10.75032043 6.67977905 C7.84975519 6.6817112 5.64751563 6.55571079 3.39706421 4.62432861 C2.00463867 2.96337891 2.00463867 2.96337891 0 0 Z " fill="#42AD4F" transform="translate(28,113)"/>
<path d="M0 0 C0.99 0.33 1.98 0.66 3 1 C4.88613601 9.17325604 2.9470757 17.00375706 1 25 C0.67 25 0.34 25 0 25 C0 17.74 0 10.48 0 3 C-0.66 2.67 -1.32 2.34 -2 2 C-1.34 1.34 -0.68 0.68 0 0 Z " fill="#42914A" transform="translate(192,38)"/>
<path d="M0 0 C0.99 0.66 1.98 1.32 3 2 C-1.95 6.62 -6.9 11.24 -12 16 C-12.33 14.68 -12.66 13.36 -13 12 C-11.68 11.67 -10.36 11.34 -9 11 C-9 10.01 -9 9.02 -9 8 C-6.46815512 5.64276511 -5.52809907 5 -2 5 C-1.34 3.35 -0.68 1.7 0 0 Z " fill="#3B7B3F" transform="translate(159,65)"/>
<path d="M0 0 C-4.05489233 4.27083334 -7.96318503 7.92877136 -13 11 C-13.33 9.35 -13.66 7.7 -14 6 C-13.21625 5.87625 -12.4325 5.7525 -11.625 5.625 C-8.85942178 5.20882007 -8.85942178 5.20882007 -7 3 C-7 2.01 -7 1.02 -7 0 C-3.98968256 -0.93423645 -3.13349732 -1.04449911 0 0 Z " fill="#2F7037" transform="translate(135,91)"/>
<path d="M0 0 C-1.24403138 3.73209414 -3.17243898 5.30708475 -6 8 C-6.556875 8.598125 -7.11375 9.19625 -7.6875 9.8125 C-9 11 -9 11 -11 11 C-11 11.66 -11 12.32 -11 13 C-12.65 13.33 -14.3 13.66 -16 14 C-15.34 13.01 -14.68 12.02 -14 11 C-13.34 11 -12.68 11 -12 11 C-12 10.34 -12 9.68 -12 9 C-11.34 9 -10.68 9 -10 9 C-10 8.34 -10 7.68 -10 7 C-8.3203125 5.2734375 -8.3203125 5.2734375 -6.125 3.375 C-5.40570313 2.74335937 -4.68640625 2.11171875 -3.9453125 1.4609375 C-2 0 -2 0 0 0 Z " fill="#2F6933" transform="translate(145,36)"/>
<path d="M0 0 C0.66 0.33 1.32 0.66 2 1 C1.401875 1.556875 0.80375 2.11375 0.1875 2.6875 C-2.08222786 4.88462078 -2.08222786 4.88462078 -3.375 7.5625 C-5.46389622 10.69584433 -7.52209301 11.66803562 -11 13 C-11.66 12.67 -12.32 12.34 -13 12 C-11.625 10.5 -11.625 10.5 -10 9 C-9.34 9 -8.68 9 -8 9 C-8 8.34 -8 7.68 -8 7 C-6.25 5.2734375 -6.25 5.2734375 -4 3.375 C-3.2575 2.74335938 -2.515 2.11171875 -1.75 1.4609375 C-1.1725 0.97882812 -0.595 0.49671875 0 0 Z " fill="#2C6831" transform="translate(177,6)"/>
<path d="M0 0 C0.99 0.33 1.98 0.66 3 1 C-0.49359465 4.59634744 -4.11098131 7.83451967 -8 11 C-8.33 10.34 -8.66 9.68 -9 9 C-8.34 8.67 -7.68 8.34 -7 8 C-6.27840576 6.35636866 -5.60648579 4.68949614 -5 3 C-3.68 3 -2.36 3 -1 3 C-0.67 2.01 -0.34 1.02 0 0 Z " fill="#336D34" transform="translate(179,48)"/>
<path d="M0 0 C-2.97 2.64 -5.94 5.28 -9 8 C-9.33 6.68 -9.66 5.36 -10 4 C-7.01210122 0.26512652 -4.79294606 -1.59764869 0 0 Z " fill="#377638" transform="translate(145,82)"/>
<path d="M0 0 C1.27310312 0.93441535 2.543388 1.87267111 3.8125 2.8125 C4.52019531 3.33457031 5.22789062 3.85664063 5.95703125 4.39453125 C7.78531393 5.83128877 9.39896688 7.31815763 11 9 C9.68 9 8.36 9 7 9 C6.34 8.34 5.68 7.68 5 7 C4.319375 6.731875 3.63875 6.46375 2.9375 6.1875 C1 5 1 5 0.25 2.375 C0.1675 1.59125 0.085 0.8075 0 0 Z M5 9 C7 10 7 10 7 10 Z " fill="#9C9A99" transform="translate(129,15)"/>
<path d="M0 0 C5.49152542 0.61016949 5.49152542 0.61016949 7.875 2.4375 C9 4 9 4 9 6 C9.66 6.33 10.32 6.66 11 7 C5.95904225 6.55520961 3.58884285 4.33845847 0 1 C0 0.67 0 0.34 0 0 Z " fill="#387C3B" transform="translate(24,113)"/>
<path d="M0 0 C0 0.66 0 1.32 0 2 C-0.99 2.33 -1.98 2.66 -3 3 C-3.73323796 5.01508358 -3.73323796 5.01508358 -4 7 C-5.98 7.33 -7.96 7.66 -10 8 C-9.21366078 6.85050412 -8.42073742 5.70551011 -7.625 4.5625 C-7.18414062 3.92441406 -6.74328125 3.28632812 -6.2890625 2.62890625 C-4.28133516 0.09186897 -3.25928842 0 0 0 Z " fill="#46A851" transform="translate(150,74)"/>
<path d="M0 0 C-0.34879632 3.25543229 -1.02133261 4.01873107 -3.5625 6.25 C-4.366875 6.8275 -5.17125 7.405 -6 8 C-6 6.35 -6 4.7 -6 3 C-5.34 3 -4.68 3 -4 3 C-4 2.34 -4 1.68 -4 1 C-2 0 -2 0 0 0 Z " fill="#3A843F" transform="translate(188,41)"/>
<path d="M0 0 C1.32 0.66 2.64 1.32 4 2 C2.35 3.65 0.7 5.3 -1 7 C-1.99 6.67 -2.98 6.34 -4 6 C-4 5.34 -4 4.68 -4 4 C-3.01 3.67 -2.02 3.34 -1 3 C-0.67 2.01 -0.34 1.02 0 0 Z " fill="#AAA6A3" transform="translate(119,44)"/>
<path d="M0 0 C1.32 0.33 2.64 0.66 4 1 C0.535 3.97 0.535 3.97 -3 7 C-3.66 5.68 -4.32 4.36 -5 3 C-4.67 2.34 -4.34 1.68 -4 1 C-2.68 1.66 -1.36 2.32 0 3 C0 2.01 0 1.02 0 0 Z " fill="#9D9595" transform="translate(131,35)"/>
<path d="M0 0 C0.33 0 0.66 0 1 0 C1.06058594 0.83144531 1.12117188 1.66289063 1.18359375 2.51953125 C1.26738281 3.60621094 1.35117188 4.69289063 1.4375 5.8125 C1.51871094 6.89144531 1.59992188 7.97039062 1.68359375 9.08203125 C1.90212461 12.05989905 1.90212461 12.05989905 3 15 C2.01 15.33 1.02 15.66 0 16 C0 10.72 0 5.44 0 0 Z " fill="#437B4B" transform="translate(119,87)"/>
<path d="M0 0 C0.33 0.66 0.66 1.32 1 2 C0.34 2 -0.32 2 -1 2 C-1.04125 2.61875 -1.0825 3.2375 -1.125 3.875 C-1.41375 4.57625 -1.7025 5.2775 -2 6 C-5.0625 7.25 -5.0625 7.25 -8 8 C-7.04578192 6.85073734 -6.08647955 5.70569459 -5.125 4.5625 C-4.59132813 3.92441406 -4.05765625 3.28632812 -3.5078125 2.62890625 C-2 1 -2 1 0 0 Z " fill="#346C35" transform="translate(128,50)"/>
<path d="M0 0 C-2.97 2.475 -2.97 2.475 -6 5 C-6.33 3.35 -6.66 1.7 -7 0 C-3.98968256 -0.93423645 -3.13349732 -1.04449911 0 0 Z " fill="#38803D" transform="translate(135,91)"/>
<path d="M0 0 C0.66 0 1.32 0 2 0 C1.67 1.32 1.34 2.64 1 4 C0.34 4 -0.32 4 -1 4 C-1 4.66 -1 5.32 -1 6 C-2.32 5.67 -3.64 5.34 -5 5 C-3.625 3.5 -3.625 3.5 -2 2 C-1.34 2 -0.68 2 0 2 C0 1.34 0 0.68 0 0 Z " fill="#2E7133" transform="translate(21,75)"/>
<path d="M0 0 C0.99 0.66 1.98 1.32 3 2 C-0.465 4.97 -0.465 4.97 -4 8 C-4.33 7.01 -4.66 6.02 -5 5 C-4.01 5 -3.02 5 -2 5 C-1.34 3.35 -0.68 1.7 0 0 Z " fill="#306732" transform="translate(159,65)"/>
<path d="M0 0 C0.66 0.99 1.32 1.98 2 3 C0.02 4.32 -1.96 5.64 -4 7 C-4 5.68 -4 4.36 -4 3 C-2 1.25 -2 1.25 0 0 Z " fill="#3EAB55" transform="translate(31,68)"/>
<path d="M0 0 C0.66 0 1.32 0 2 0 C2.33 0.99 2.66 1.98 3 3 C1.88625 3.433125 1.88625 3.433125 0.75 3.875 C-1.56900199 4.82368263 -3.76932676 5.86559779 -6 7 C-5.04882866 5.8274869 -4.08882991 4.66212985 -3.125 3.5 C-2.59132812 2.8503125 -2.05765625 2.200625 -1.5078125 1.53125 C-0.76144531 0.77328125 -0.76144531 0.77328125 0 0 Z " fill="#286128" transform="translate(160,21)"/>
<path d="M0 0 C1.65 0 3.3 0 5 0 C5.33 0.66 5.66 1.32 6 2 C5.01 2 4.02 2 3 2 C3 2.99 3 3.98 3 5 C1.68 4.34 0.36 3.68 -1 3 C-0.67 2.01 -0.34 1.02 0 0 Z " fill="#C7C5C6" transform="translate(109,2)"/>
<path d="M0 0 C2.31 0 4.62 0 7 0 C7.33 0.99 7.66 1.98 8 3 C7.071875 2.835 6.14375 2.67 5.1875 2.5 C2.04378647 1.92251612 2.04378647 1.92251612 -1 2 C-0.67 1.34 -0.34 0.68 0 0 Z " fill="#33B349" transform="translate(57,4)"/>
<path d="M0 0 C1.32 0.33 2.64 0.66 4 1 C3.01 2.485 3.01 2.485 2 4 C0.68 4 -0.64 4 -2 4 C-1.34 2.68 -0.68 1.36 0 0 Z " fill="#3D8545" transform="translate(14,81)"/>
<path d="M0 0 C0.99 0 1.98 0 3 0 C1.70700306 2.88437779 0.34058637 4.87219421 -2 7 C-2.66 6.67 -3.32 6.34 -4 6 C-2.1875 3 -2.1875 3 0 0 Z " fill="#3FAC52" transform="translate(181,4)"/>
</svg>
